<mxfile host="app.diagrams.net" modified="2023-07-06T14:48:21.902Z" agent="Mozilla/5.0 (Windows NT 10.0; Win64; x64) AppleWebKit/537.36 (KHTML, like Gecko) Chrome/114.0.0.0 Safari/537.36" version="21.2.9" etag="7scJUKGO-9SpLuPnbk36" type="github">
  <diagram name="Page-1" id="vcV-yVb5MliYD7OHsdSn">
    <mxGraphModel>
      <root>
        <mxCell id="0" />
        <mxCell id="1" parent="0" />
      </root>
    </mxGraphModel>
  </diagram>
</mxfile>
